<svg id="download" xmlns="http://www.w3.org/2000/svg" width="22" height="22" viewBox="0 0 22 22" fill="none">
  <g clip-path="url(#clip0_16_959)">
    <path d="M16.5003 19.2497L20.167 15.583L18.8837 14.2997L17.417 15.7663V11.9393H15.5837V15.7663L14.117 14.2997L12.8337 15.583L16.5003 19.2497ZM12.8337 21.9997V20.1663H20.167V21.9997H12.8337ZM5.50033 18.333C4.99616 18.333 4.56471 18.1536 4.20599 17.7949C3.84727 17.4362 3.6676 17.0045 3.66699 16.4997V3.66634C3.66699 3.16217 3.84666 2.73073 4.20599 2.37201C4.56533 2.01329 4.99677 1.83362 5.50033 1.83301H11.917L17.417 7.33301V10.1059H15.5837V8.24967H11.0003V3.66634H5.50033V16.4997H11.0003V18.333H5.50033Z" fill="currentColor"/>
  </g>
  <defs>
    <clipPath id="clip0_16_959">
      <rect width="22" height="22" fill="currentColor"/>
    </clipPath>
  </defs>
</svg>