<svg id="info" xmlns="http://www.w3.org/2000/svg" width="16" height="16" viewBox="0 0 16 16" fill="none">
  <path fill-rule="evenodd" clip-rule="evenodd" d="M14.6668 7.99967C14.6668 11.6817 11.6822 14.6663 8.00016 14.6663C4.31816 14.6663 1.3335 11.6817 1.3335 7.99967C1.3335 4.31767 4.31816 1.33301 8.00016 1.33301C11.6822 1.33301 14.6668 4.31767 14.6668 7.99967ZM7.3335 5.33301C7.3335 5.50982 7.40373 5.67939 7.52876 5.80441C7.65378 5.92944 7.82335 5.99967 8.00016 5.99967H8.0055C8.18231 5.99967 8.35188 5.92944 8.4769 5.80441C8.60193 5.67939 8.67216 5.50982 8.67216 5.33301C8.67216 5.1562 8.60193 4.98663 8.4769 4.8616C8.35188 4.73658 8.18231 4.66634 8.0055 4.66634H8.00016C7.82335 4.66634 7.65378 4.73658 7.52876 4.8616C7.40373 4.98663 7.3335 5.1562 7.3335 5.33301ZM8.00016 11.333C8.17697 11.333 8.34654 11.2628 8.47157 11.1377C8.59659 11.0127 8.66683 10.8432 8.66683 10.6663V7.33301C8.66683 7.1562 8.59659 6.98663 8.47157 6.8616C8.34654 6.73658 8.17697 6.66634 8.00016 6.66634C7.82335 6.66634 7.65378 6.73658 7.52876 6.8616C7.40373 6.98663 7.3335 7.1562 7.3335 7.33301V10.6663C7.3335 10.8432 7.40373 11.0127 7.52876 11.1377C7.65378 11.2628 7.82335 11.333 8.00016 11.333Z" fill="currentColor"/>
</svg>