<svg width="39" height="39" viewBox="0 0 39 39" fill="none" xmlns="http://www.w3.org/2000/svg">
<path d="M19.5 0C15.6433 0 11.8731 1.14365 8.66639 3.28634C5.45963 5.42903 2.96027 8.47451 1.48436 12.0377C0.00844902 15.6008 -0.377716 19.5216 0.374696 23.3043C1.12711 27.0869 2.9843 30.5615 5.71142 33.2886C8.43855 36.0157 11.9131 37.8729 15.6957 38.6253C19.4784 39.3777 23.3992 38.9916 26.9623 37.5156C30.5255 36.0397 33.571 33.5404 35.7137 30.3336C37.8563 27.1269 39 23.3567 39 19.5C39 14.3283 36.9455 9.36837 33.2886 5.71142C29.6316 2.05446 24.6717 0 19.5 0V0ZM19.5 36.2143C16.1942 36.2143 12.9627 35.234 10.214 33.3974C7.4654 31.5608 5.32309 28.9504 4.05802 25.8963C2.79296 22.8421 2.46196 19.4815 3.10688 16.2392C3.75181 12.9969 5.34369 10.0187 7.68122 7.68121C10.0188 5.34368 12.997 3.7518 16.2392 3.10687C19.4815 2.46195 22.8421 2.79295 25.8963 4.05801C28.9504 5.32308 31.5608 7.46539 33.3974 10.214C35.234 12.9627 36.2143 16.1942 36.2143 19.5C36.2143 23.9329 34.4533 28.1842 31.3188 31.3188C28.1842 34.4533 23.9329 36.2143 19.5 36.2143Z" fill="#FF000E"/>
<path d="M18.1071 8.35693H20.8928V23.6784H18.1071V8.35693ZM19.4999 27.8569C19.0867 27.8569 18.6828 27.9795 18.3392 28.209C17.9956 28.4386 17.7278 28.7649 17.5697 29.1467C17.4115 29.5284 17.3702 29.9485 17.4508 30.3538C17.5314 30.7591 17.7304 31.1314 18.0226 31.4236C18.3148 31.7158 18.687 31.9147 19.0923 31.9954C19.4976 32.076 19.9177 32.0346 20.2995 31.8765C20.6812 31.7183 21.0075 31.4505 21.2371 31.107C21.4667 30.7634 21.5892 30.3594 21.5892 29.9462C21.5892 29.3921 21.3691 28.8607 20.9773 28.4689C20.5855 28.0771 20.054 27.8569 19.4999 27.8569Z" fill="#FF000E"/>
</svg>
